<svg id="Layer_1" data-name="Layer 1" xmlns="http://www.w3.org/2000/svg" viewBox="0 0 122.88 63.67">
    <defs>
        <style>.cls-1{fill-rule:evenodd;}</style>
    </defs>
    <title>car-door</title>
  <path class="cls-1" d="m80.12,-38.28l0,0m-73.15,64.16c-7.48,-4.2 -6.62,-8.88 0.89,-8.4l1.69,3.49l3.46,-11.91c1.37,-4.7 3.63,-8.94 8.08,-8.94l45.46,0c4.46,0 6.73,4.25 8.08,8.94l3.46,11.91l1.69,-3.49c7.52,-0.49 8.37,4.2 0.89,8.4c8.33,5.96 7.17,16.39 6.36,27.95c0.01,0.14 0.03,0.28 0.03,0.44l0,6.43c0,1.53 -1.13,2.79 -2.52,2.79l-10.78,0c-1.4,0 -2.52,-1.25 -2.52,-2.79l0,-2.25l-54.8,0l0,2.25c0,1.53 -1.13,2.79 -2.52,2.79l-10.78,0c-1.4,0 -2.52,-1.25 -2.52,-2.79l0,-6.43c0,-0.14 0.01,-0.28 0.03,-0.44c-0.81,-11.56 -1.97,-21.99 6.36,-27.95l-0.04,0l-0.02,0zm36.85,-21.07l-21.26,0c-3.38,0 -5.12,3.25 -6.16,6.82l-3.26,11.98l0,0.57l0,-0.57l61.35,0l0,0.57l0,-0.57l-3.26,-11.98c-1.04,-3.57 -2.78,-6.82 -6.16,-6.82l-21.26,0l0.01,0l0.01,0zm23.09,34.78l9.58,-1.34c2.27,-0.27 2.87,0.78 2.1,2.93l-1.03,2.78c-0.33,0.71 -0.77,1.24 -1.28,1.59c-0.6,0.42 -1.34,0.61 -2.15,0.66l-8.53,0.07c-2.06,0 -2.96,-0.92 -2.31,-3.01c0.53,-1.97 1.74,-3.21 3.65,-3.68l-0.03,0.01l0.01,-0.01zm-46.17,0l-9.58,-1.34c-2.27,-0.27 -2.87,0.78 -2.1,2.93l1.03,2.78c0.33,0.71 0.77,1.24 1.28,1.59c0.6,0.42 1.34,0.61 2.15,0.66l8.53,0.07c2.06,0 2.96,-0.92 2.31,-3.01c-0.53,-1.97 -1.74,-3.21 -3.65,-3.68l0.03,0.01l-0.01,-0.01z" id="svg_1"/>
</svg>